<svg xmlns="http://www.w3.org/2000/svg" viewBox="0 0 155 202.97"><defs><style>.cls-1{fill:#c6cc38;}.cls-2{fill:#432416;}.cls-3{fill:#9eb121;}</style></defs><title>arbre03</title><g id="Calque_2" data-name="Calque 2"><g id="objects"><path class="cls-1" d="M155,87.28a30.06,30.06,0,0,0-18.17-27.61,26.44,26.44,0,0,0-33.28-31.74c0-.37,0-.75,0-1.12,0-.12,0-.24,0-.36s0-.24,0-.36a26.08,26.08,0,0,0-52.15,0c0,.12,0,.24,0,.36s0,.24,0,.36c0,.63,0,1.25.07,1.86A26.44,26.44,0,0,0,18.17,60.39a30.06,30.06,0,0,0-1.77,54.39,27.88,27.88,0,0,0,40,34.24,22.46,22.46,0,0,0,42.34-.6,27.88,27.88,0,0,0,39.82-34.36A30,30,0,0,0,155,87.28"/><path class="cls-2" d="M131.54,127.26A8.74,8.74,0,0,1,126,111.9l.38-.33-2.62-3-.38.33a12.78,12.78,0,0,0-.51,18.84,15.82,15.82,0,0,1-25,5.33,15.46,15.46,0,0,1-1.44-1.48v0c0-.07,0-.14,0-.21l-.09-.5-.42.08a15.82,15.82,0,0,1-2.34-15,12.81,12.81,0,0,0,2.88-1,12.77,12.77,0,0,0,7.11-12.76l-.05-.5-4,.4,0,.5a8.77,8.77,0,0,1-4.88,8.76,8.77,8.77,0,0,1-12.61-8.07v-.5l-4-.08v.5a12.73,12.73,0,0,0,8.61,12.34,12.9,12.9,0,0,0,2.62.6,19.77,19.77,0,0,0,3.3,17.07,15.79,15.79,0,0,1-19.61,17c-6.46-1.65-10.77-8.89-11.66-15l.12,0A19.77,19.77,0,0,0,72.28,105.5a12.75,12.75,0,0,0,5.21-14.38l-.15-.48-3.83,1.17.15.48a8.77,8.77,0,0,1-6.87,11.19,8.77,8.77,0,0,1-10.16-7.12l-.09-.49-3.94.69.09.49a12.78,12.78,0,0,0,14.79,10.36,11.34,11.34,0,0,0,1.11-.26,15.82,15.82,0,0,1-8.26,24.18,16.22,16.22,0,0,1-2,.48,15.73,15.73,0,0,1-14.95-5.58,12.76,12.76,0,0,0-6.66-15.64l-.45-.21L34.6,114l.45.21A8.77,8.77,0,0,1,37,128.87a8.74,8.74,0,0,1-10.31.72l-.42-.27-2.13,3.39.42.27a12.73,12.73,0,0,0,15-1A12.57,12.57,0,0,0,41.4,130a19.77,19.77,0,0,0,16.06,6c1.17,7.53,6.48,16.06,14.6,18.14.48.12,1,.2,1.44.29V203h8V154.19a19.86,19.86,0,0,0,14.67-14.36,19,19,0,0,0,.48-2.69,19.78,19.78,0,0,0,15.29,3.62A19.68,19.68,0,0,0,126.23,130a12.9,12.9,0,0,0,5,1.25l.47,0,0-.47c.1-1,.18-2,.23-3l0-.51Z"/><path class="cls-3" d="M31.35,61.27A20.92,20.92,0,0,1,57.44,40.92a19,19,0,1,0-24,29.37,20.87,20.87,0,0,1-2.06-9"/><path class="cls-3" d="M64.74,22.26a20.93,20.93,0,0,1,32.84,4.06,19,19,0,1,0-37.76,3.77,20.88,20.88,0,0,1,4.92-7.83"/><path class="cls-3" d="M105.07,41.23a20.93,20.93,0,0,1,20.35,26.1,19,19,0,1,0-29.37-24,20.85,20.85,0,0,1,9-2.06"/></g></g></svg>