<svg xmlns="http://www.w3.org/2000/svg" viewBox="0 0 107 217.53"><defs><style>.cls-1{fill:#c6cc38;}.cls-2{fill:#9eb121;}.cls-3{fill:#432416;}</style></defs><title>arbre01</title><g id="Calque_2" data-name="Calque 2"><g id="objects"><path class="cls-1" d="M55.51,0S1.34,100.71,0,137.12s23.39,62.31,84.63,42.47C148.37,159,55.51,0,55.51,0"/><path class="cls-2" d="M77.7,34.92s-65,74.7-73.16,104.87,7.32,56.07,62.34,50.13c57.22-6.18,10.82-155,10.82-155"/><polygon class="cls-3" points="74.68 147.03 55.12 160.18 55.12 130.38 61.39 125.62 75.71 131.13 76.91 128.02 64.52 123.25 74.39 115.76 72.37 113.11 55.12 126.19 55.12 92.61 50.46 92.61 50.46 108.96 39.89 100.67 37.83 103.29 50.46 113.2 50.46 146.53 40.28 141.18 38.8 126.36 35.48 126.69 36.75 139.31 25.98 133.65 24.43 136.6 50.46 150.3 50.46 174.32 33.11 165.18 31.55 168.14 50.46 178.09 50.46 217.53 55.12 217.53 55.12 164.19 76.54 149.8 74.68 147.03"/></g></g></svg>