<svg xmlns="http://www.w3.org/2000/svg" viewBox="0 0 137.87 169.27"><defs><style>.cls-1{fill:#c6cc38;}.cls-2{fill:#9eb121;}.cls-3{fill:#432416;}</style></defs><title>arbre02</title><g id="Calque_2" data-name="Calque 2"><g id="objects"><path class="cls-1" d="M136.81,108.21C132.65,121,115.6,125.93,103.94,121c-8.52-3.59-15.7-15.25-11.21-23.77A29.44,29.44,0,0,1,115.6,82c12.11-.45,23.78,10.32,22.12,22.28a18,18,0,0,1-.9,4"/><path class="cls-2" d="M126.72,111.41c-2.82,8.64-14.33,12-22.22,8.64-5.76-2.43-10.61-10.31-7.58-16.07a19.9,19.9,0,0,1,15.46-10.31c8.18-.3,16.06,7,14.94,15.06a12,12,0,0,1-.61,2.68"/><path class="cls-1" d="M80.57,49.8C88.22,35.17,109.87,32.68,123,41c9.58,6.09,15.89,21.67,8.71,31.07A36.15,36.15,0,0,1,100.88,85.9C86.13,84,74.21,68.55,78.66,54.4a22.2,22.2,0,0,1,1.9-4.61"/><path class="cls-2" d="M103.53,52.23c3.4-6.5,13-7.6,18.84-3.89,4.26,2.7,7.06,9.63,3.87,13.8a16.07,16.07,0,0,1-13.69,6.12c-6.55-.86-11.85-7.71-9.87-14a9.86,9.86,0,0,1,.85-2"/><path class="cls-1" d="M59.1,55.43C54.93,42.65,37.88,37.71,26.22,42.65,17.7,46.24,10.52,57.9,15,66.42A29.45,29.45,0,0,0,37.88,81.67C50,82.12,61.66,71.36,60,59.39a17.78,17.78,0,0,0-.9-4"/><path class="cls-2" d="M55.2,57.19c-2.48-7.61-12.63-10.55-19.58-7.61-5.07,2.14-9.35,9.08-6.68,14.16a17.53,17.53,0,0,0,13.62,9.08c7.21.27,14.16-6.14,13.17-13.27a10.71,10.71,0,0,0-.54-2.36"/><path class="cls-1" d="M2.85,113.85c7.66,14.63,29.3,17.11,42.41,8.76,9.58-6.09,15.89-21.67,8.72-31.07A36.15,36.15,0,0,0,23.16,77.75C8.41,79.68-3.51,95.1.95,109.24a22.07,22.07,0,0,0,1.9,4.6"/><path class="cls-2" d="M11.06,112.49c4.14,7.92,15.86,9.26,23,4.74,5.19-3.29,8.6-11.73,4.72-16.82a19.58,19.58,0,0,0-16.67-7.46c-8,1-14.44,9.39-12,17a12,12,0,0,0,1,2.49"/><path class="cls-1" d="M45.18,14.67C52.62-.81,72.86-3.85,84.92,4.65,93.74,10.83,99.3,27,92.43,37S74.2,52.75,63.41,52.1c-13.73-1.73-24.54-17.65-20.1-32.56a25.79,25.79,0,0,1,1.87-4.86"/><path class="cls-2" d="M68.29,21.61c3.3-6.88,12.29-8.23,17.65-4.46,3.92,2.75,6.39,9.95,3.34,14.39a15,15,0,0,1-12.89,6.69c-6.1-.77-10.9-7.84-8.93-14.47a11.54,11.54,0,0,1,.83-2.16"/><path class="cls-3" d="M18.19,93.42,47,107.11,31,108.22l2,1.67,17.31-.84,16.63,9.17-.32,51c3.31-.14,6.61-.26,9.92-.34l-.73-44,44.39-15.21a5.87,5.87,0,0,1-.82-2.67L102,112.1l6.19-16.16h-1.67l-7,16.19-24.36,8.26L74.05,84.48l7.32-6.77L99,77.47l.82-1.64H83.41L100,60.46l-.56-2.51L88.22,67.82l4.51-17.35L91.37,51,85.42,70.28,74.33,80,71.82,26.11H69.31L69,53.76,55.62,41.47l-2.52.28L68.47,56.83,67.41,92.22,52.27,79.73l-1.4-12-1.12-2V78.06l-10.33-6.7-2.79-.28L67.41,95.87l-.2,16.62L36.63,98.17,32.44,88.11l-2.23-.56,3.91,9.78-16.2-5Z"/></g></g></svg>