<svg xmlns="http://www.w3.org/2000/svg" viewBox="0 0 1011.44 1909.73"><defs><style>.cls-1{fill:#e6e7e8;}.cls-2{fill:#d1d3d4;}.cls-3{fill:#939598;}.cls-4{fill:#f2ac5f;}.cls-5{fill:#bcbec0;}.cls-6{fill:#f7941e;}</style></defs><title>eolienne</title><g id="Calque_2" data-name="Calque 2"><g id="Layer_1" data-name="Layer 1"><g id="_Groupe_" data-name="&lt;Groupe&gt;"><polygon id="_Tracé_" data-name="&lt;Tracé&gt;" class="cls-1" points="562.13 1909.73 449.31 1909.73 478.49 583.6 532.95 583.6 562.13 1909.73"/><polygon id="_Tracé_2" data-name="&lt;Tracé&gt;" class="cls-2" points="532.95 583.6 505.72 583.6 505.72 1909.73 562.13 1909.73 532.95 583.6"/><polygon id="_Tracé_3" data-name="&lt;Tracé&gt;" class="cls-2" points="505.72 0 577.72 450 505.72 558 433.72 450 505.72 0"/><polygon id="_Tracé_4" data-name="&lt;Tracé&gt;" class="cls-2" points="1011.44 793.82 573.17 668.89 505.72 558 634.03 538.39 1011.44 793.82"/><polygon id="_Tracé_5" data-name="&lt;Tracé&gt;" class="cls-1" points="0 793.82 438.27 668.89 505.72 558 377.41 538.39 0 793.82"/><polygon id="_Tracé_6" data-name="&lt;Tracé&gt;" class="cls-1" points="505.72 558 577.72 450 505.72 0 505.72 558 505.72 558"/><polygon id="_Tracé_7" data-name="&lt;Tracé&gt;" class="cls-2" points="505.72 558 0 793.82 438.27 668.89 505.72 558"/><polygon id="_Tracé_8" data-name="&lt;Tracé&gt;" class="cls-1" points="573.17 668.89 1011.44 793.82 505.72 558 573.17 668.89"/><circle id="_Tracé_9" data-name="&lt;Tracé&gt;" class="cls-3" cx="505.72" cy="558" r="61.27" transform="translate(-246.44 521.03) rotate(-45)"/><circle id="_Tracé_10" data-name="&lt;Tracé&gt;" class="cls-2" cx="505.72" cy="558" r="33.03" transform="translate(-246.44 521.03) rotate(-45)"/><polygon id="_Tracé_11" data-name="&lt;Tracé&gt;" class="cls-4" points="468.66 1030.14 466.9 1110.14 505.72 1110.14 505.72 1030.14 468.66 1030.14"/><polygon id="_Tracé_12" data-name="&lt;Tracé&gt;" class="cls-5" points="544.54 1110.14 543.79 1076.12 544.54 1110.14 544.54 1110.14"/><polygon id="_Tracé_13" data-name="&lt;Tracé&gt;" class="cls-6" points="543.79 1076.12 542.78 1030.14 505.72 1030.14 505.72 1110.14 544.54 1110.14 543.79 1076.12"/><polygon id="_Tracé_14" data-name="&lt;Tracé&gt;" class="cls-4" points="461.53 1354.14 459.77 1434.14 505.72 1434.14 505.72 1354.14 461.53 1354.14"/><polygon id="_Tracé_15" data-name="&lt;Tracé&gt;" class="cls-5" points="551.67 1434.14 550.64 1387.39 551.67 1434.14 551.67 1434.14"/><polygon id="_Tracé_16" data-name="&lt;Tracé&gt;" class="cls-6" points="550.64 1387.39 549.91 1354.14 505.72 1354.14 505.72 1434.14 551.67 1434.14 550.64 1387.39"/></g></g></g></svg>