<svg xmlns="http://www.w3.org/2000/svg" viewBox="0 0 350 279.06"><defs><style>.cls-1{fill:#383838;}.cls-2{fill:#161616;}.cls-3{fill:#777;}.cls-4{fill:#141414;}.cls-5{fill:#97ccd0;}.cls-6{fill:#6facad;}</style></defs><title>panneauSolaire</title><g id="Calque_2" data-name="Calque 2"><g id="Layer_1" data-name="Layer 1"><rect class="cls-1" x="119.63" y="212.18" width="12.45" height="59.6"/><rect class="cls-2" x="132.05" y="212.18" width="6.1" height="59.6"/><path class="cls-3" d="M116.61,271.78H135.1a5.82,5.82,0,0,1,5.82,5.82v1.47a0,0,0,0,1,0,0H110.79a0,0,0,0,1,0,0v-1.47A5.82,5.82,0,0,1,116.61,271.78Z"/><path class="cls-1" d="M143.55,271.78H135.1a5.82,5.82,0,0,1,5.82,5.82v1.47h7v-3A4.32,4.32,0,0,0,143.55,271.78Z"/><path class="cls-1" d="M347.87,203.41a4.77,4.77,0,0,1-3.07,1.08H5.21c-3.32,0-5.62-3.13-5.15-7L23.72,5.16a5.57,5.57,0,0,1,.86-2.37A6,6,0,0,1,29.5,0h291a6,6,0,0,1,5.77,5.16l23.66,192.36A6.41,6.41,0,0,1,347.87,203.41Z"/><path class="cls-4" d="M347.87,203.41,24.59,2.79A6,6,0,0,1,29.5,0h291a6,6,0,0,1,5.77,5.16l23.66,192.36A6.41,6.41,0,0,1,347.87,203.41Z"/><path class="cls-5" d="M66.76,11.59,64.24,40.38a5.22,5.22,0,0,1-.9,2.5,5.17,5.17,0,0,1-1.66,1.59,4.82,4.82,0,0,1-2.53.73H30.52a4.15,4.15,0,0,1-4.1-4.83L29.8,11.59a5.21,5.21,0,0,1,1.78-3.3,5.35,5.35,0,0,1,1.24-.81,4.82,4.82,0,0,1,2-.47H62.63A4.11,4.11,0,0,1,66.76,11.59Z"/><path class="cls-5" d="M109,11.59l-1.54,28.78A5.13,5.13,0,0,1,105.64,44a4.59,4.59,0,0,1-.72.52,4.66,4.66,0,0,1-2.37.66H73.91a4.31,4.31,0,0,1-4.27-4.83L72,11.59A4.9,4.9,0,0,1,73.49,8.5l.21-.21A4.82,4.82,0,0,1,77,7h27.76A4.28,4.28,0,0,1,109,11.59Z"/><path class="cls-5" d="M151.24,11.59l-.55,28.78a4.79,4.79,0,0,1-.48,2,4.93,4.93,0,0,1-.9,1.33,4.68,4.68,0,0,1-3.39,1.47H117.3a4.49,4.49,0,0,1-4.43-4.83l1.41-28.78a4.84,4.84,0,0,1,1.6-3.34,4.67,4.67,0,0,1,1.7-1A4.5,4.5,0,0,1,119,7H146.8A4.45,4.45,0,0,1,151.24,11.59Z"/><path class="cls-5" d="M193.92,40.38a4.76,4.76,0,0,1-2.21,4.13h0a4.38,4.38,0,0,1-2.38.7H160.69a4.67,4.67,0,0,1-4.6-4.83l.43-28.78a4.75,4.75,0,0,1,1.17-3A4.53,4.53,0,0,1,161.12,7h27.76a4.64,4.64,0,0,1,4.6,4.58Z"/><path class="cls-5" d="M237.13,40.38a4.68,4.68,0,0,1-.73,2.81,4.43,4.43,0,0,1-1.49,1.42,4.37,4.37,0,0,1-2.21.6H204.08a4.86,4.86,0,0,1-4.76-4.83l-.56-28.78A4.48,4.48,0,0,1,200,8.4a4.21,4.21,0,0,1,.82-.69A4.37,4.37,0,0,1,203.2,7H231a4.83,4.83,0,0,1,4.76,4.58Z"/><path class="cls-5" d="M279.82,43a4.15,4.15,0,0,1-1.29,1.46,4.24,4.24,0,0,1-2.44.75H247.47a5.08,5.08,0,0,1-4.94-4.83L241,11.59a4.33,4.33,0,0,1,.82-2.84,4.12,4.12,0,0,1,1.27-1.14,4.17,4.17,0,0,1,2.19-.6H273A5,5,0,0,1,278,11.59l2.39,28.78A4.58,4.58,0,0,1,279.82,43Z"/><path class="cls-5" d="M322.3,44.1a1.49,1.49,0,0,1-.23.21,4.06,4.06,0,0,1-2.59.89H290.86a5.3,5.3,0,0,1-5.1-4.83l-2.52-28.78a4.29,4.29,0,0,1,.66-2.73A4.07,4.07,0,0,1,287.37,7h27.77a5.27,5.27,0,0,1,5.07,4.58l3.38,28.78A4.24,4.24,0,0,1,322.3,44.1Z"/><path class="cls-5" d="M62.92,55.43l-2.7,30.89a5.88,5.88,0,0,1-1.53,3.45,5.45,5.45,0,0,1-1.14.94,4.84,4.84,0,0,1-2.62.79H25.25A4.38,4.38,0,0,1,21,86.32l3.63-30.89a5.45,5.45,0,0,1,.72-2.13,6,6,0,0,1,1.09-1.36,5.15,5.15,0,0,1,3.46-1.41H58.65A4.32,4.32,0,0,1,62.92,55.43Z"/><path class="cls-5" d="M106.66,55.43,105,86.32a5.63,5.63,0,0,1-1.34,3.36,5.1,5.1,0,0,1-.56.58,4.85,4.85,0,0,1-3.22,1.25H70.23a4.55,4.55,0,0,1-4.41-5.18l2.57-30.89a5.41,5.41,0,0,1,1.24-3,5.28,5.28,0,0,1,1.07-1,4.77,4.77,0,0,1,2.78-.9h28.74A4.49,4.49,0,0,1,106.66,55.43Z"/><path class="cls-5" d="M150.4,55.43l-.6,30.89a5.4,5.4,0,0,1-2.1,4.2,4.61,4.61,0,0,1-2.85,1H115.19a4.73,4.73,0,0,1-4.58-5.18l1.51-30.89a5.26,5.26,0,0,1,1.13-3,4.87,4.87,0,0,1,3.8-1.91H145.8A4.69,4.69,0,0,1,150.4,55.43Z"/><path class="cls-5" d="M194.6,86.32a5.29,5.29,0,0,1-.84,3,4.66,4.66,0,0,1-3.92,2.21H160.16a4.93,4.93,0,0,1-4.76-5.18l.46-30.89a5,5,0,0,1,2.47-4.28,4.61,4.61,0,0,1,2.29-.62h28.74a4.88,4.88,0,0,1,4.76,4.9Z"/><path class="cls-5" d="M239.4,86.32a5,5,0,0,1-1.78,4.17,4.37,4.37,0,0,1-2.81,1H205.14a5.15,5.15,0,0,1-4.95-5.18l-.59-30.89a4.87,4.87,0,0,1,.58-2.43,4.54,4.54,0,0,1,4-2.46h28.74a5.1,5.1,0,0,1,4.94,4.9Z"/><path class="cls-5" d="M284.19,86.32a5,5,0,0,1-1,3.5,4.27,4.27,0,0,1-3.43,1.69H250.11A5.37,5.37,0,0,1,245,86.32l-1.65-30.89a4.7,4.7,0,0,1,1.54-3.8,4.31,4.31,0,0,1,2.89-1.09h28.74a5.31,5.31,0,0,1,5.11,4.9Z"/><path class="cls-5" d="M328.24,89.63a4.08,4.08,0,0,1-3.5,1.88H295.08a5.59,5.59,0,0,1-5.29-5.18l-2.7-30.89a4.51,4.51,0,0,1,1.57-3.94,4.14,4.14,0,0,1,2.69-1h28.74a5.54,5.54,0,0,1,5.26,4.9L329,86.32A4.88,4.88,0,0,1,328.24,89.63Z"/><path class="cls-5" d="M58.79,102.5l-2.9,33.23a6.36,6.36,0,0,1-2.09,4.18,5.13,5.13,0,0,1-3.43,1.4H19.58c-2.77,0-4.73-2.5-4.36-5.58l3.9-33.23A6.14,6.14,0,0,1,22,98a5,5,0,0,1,2.64-.78h29.8A4.57,4.57,0,0,1,58.79,102.5Z"/><path class="cls-5" d="M104.15,102.5l-1.78,33.23a6.08,6.08,0,0,1-2.26,4.47,4.84,4.84,0,0,1-3,1.11H66.26c-2.78,0-4.82-2.5-4.56-5.58l2.76-33.23a6,6,0,0,1,.9-2.68,5.29,5.29,0,0,1,4.4-2.58h29.8A4.76,4.76,0,0,1,104.15,102.5Z"/><path class="cls-5" d="M149.5,102.5l-.65,33.23A5.91,5.91,0,0,1,147,140a4.78,4.78,0,0,1-3.29,1.35H112.94c-2.78,0-4.91-2.5-4.76-5.58l1.64-33.23a5.75,5.75,0,0,1,1.65-3.77,4.91,4.91,0,0,1,3.47-1.49h29.8A5,5,0,0,1,149.5,102.5Z"/><path class="cls-5" d="M195.34,135.74a5.65,5.65,0,0,1-2.37,4.8,4.59,4.59,0,0,1-2.56.78H159.61a5.24,5.24,0,0,1-4.95-5.58l.5-33.23a5.62,5.62,0,0,1,.81-2.85,4.89,4.89,0,0,1,4.13-2.41h29.8a5.16,5.16,0,0,1,4.94,5.26Z"/><path class="cls-5" d="M241.82,135.74a5.63,5.63,0,0,1-1.29,4,4.51,4.51,0,0,1-3.46,1.63H206.28a5.45,5.45,0,0,1-5.14-5.58l-.64-33.23a5.32,5.32,0,0,1,1.71-4.07,4.53,4.53,0,0,1,3-1.19h29.8a5.4,5.4,0,0,1,5.13,5.26Z"/><path class="cls-5" d="M287,139.9a4.31,4.31,0,0,1-3.22,1.42H253a5.68,5.68,0,0,1-5.32-5.58l-1.78-33.23a5.4,5.4,0,0,1,.73-3,4.47,4.47,0,0,1,3.85-2.22h29.81a5.61,5.61,0,0,1,5.29,5.26l2.77,33.23A5.39,5.39,0,0,1,287,139.9Z"/><path class="cls-5" d="M333.54,140a4.2,4.2,0,0,1-3.12,1.36H299.63c-2.78,0-5.24-2.5-5.51-5.58L291.2,102.5a5.06,5.06,0,0,1,1.05-3.67,4.25,4.25,0,0,1,3.35-1.6h29.8a5.88,5.88,0,0,1,5.48,5.26l3.9,33.23A5.26,5.26,0,0,1,333.54,140Z"/><path class="cls-5" d="M54.36,153.17,51.22,189a6.79,6.79,0,0,1-3.7,5.56,4.74,4.74,0,0,1-2,.47h-32c-2.88,0-4.91-2.71-4.51-6l4.21-35.86a6.56,6.56,0,0,1,.76-2.4,5.8,5.8,0,0,1,4.95-3.27H49.81C52.6,147.5,54.64,150,54.36,153.17Z"/><path class="cls-5" d="M101.44,153.17,99.53,189a6.44,6.44,0,0,1-3.85,5.71,4.63,4.63,0,0,1-1.69.32H62c-2.88,0-5-2.71-4.72-6l3-35.86a6.72,6.72,0,0,1,1.18-3.25,5.39,5.39,0,0,1,4.34-2.42H96.7C99.49,147.5,101.61,150,101.44,153.17Z"/><path class="cls-5" d="M148.52,153.17l-.7,35.86a6.57,6.57,0,0,1-1.85,4.51,4.9,4.9,0,0,1-3.49,1.52h-32c-2.89,0-5.1-2.71-4.93-6l1.76-35.86a6.37,6.37,0,0,1,1.1-3.29,5.18,5.18,0,0,1,4.22-2.38h30.93C146.37,147.5,148.58,150,148.52,153.17Z"/><path class="cls-5" d="M196.13,189a6.16,6.16,0,0,1-2.42,5.14,4.59,4.59,0,0,1-2.7.89H159c-2.89,0-5.18-2.71-5.14-6l.54-35.86a6.09,6.09,0,0,1,1.06-3.39,4.92,4.92,0,0,1,4.07-2.28h30.93c2.78,0,5.09,2.53,5.13,5.67Z"/><path class="cls-5" d="M244.43,189a5.82,5.82,0,0,1-2.68,5.42,4.41,4.41,0,0,1-2.23.61h-32c-2.89,0-5.27-2.71-5.34-6l-.69-35.86a6,6,0,0,1,.53-2.63,4.88,4.88,0,0,1,4.41-3h30.93c2.79,0,5.17,2.53,5.32,5.67Z"/><path class="cls-5" d="M290.92,194a4.37,4.37,0,0,1-2.9,1.09H256c-2.88,0-5.36-2.71-5.54-6l-1.91-35.86a5.79,5.79,0,0,1,1-3.71,4.52,4.52,0,0,1,3.7-2h30.93c2.79,0,5.26,2.53,5.52,5.67l3,35.86A5.83,5.83,0,0,1,290.92,194Z"/><path class="cls-5" d="M340.12,193.14a4.3,4.3,0,0,1-3.6,1.92h-32c-2.88,0-5.45-2.71-5.75-6l-3.14-35.86a5.66,5.66,0,0,1,.89-3.69,4.38,4.38,0,0,1,3.67-2h30.93c2.78,0,5.34,2.53,5.71,5.67L341,189A6,6,0,0,1,340.12,193.14Z"/><path class="cls-3" d="M349.94,197.52c.47,3.84-1.83,7-5.14,7H5.21c-2.78,0-4.83-2.2-5.16-5.17,0,2.2,0,6,0,8.88a4,4,0,0,0,4,4H346a4,4,0,0,0,4-4Z"/><rect class="cls-1" x="210.97" y="212.18" width="12.45" height="59.6"/><rect class="cls-2" x="223.39" y="212.18" width="6.1" height="59.6"/><path class="cls-3" d="M208,271.78h18.49a5.82,5.82,0,0,1,5.82,5.82v1.47a0,0,0,0,1,0,0H202.13a0,0,0,0,1,0,0v-1.47A5.82,5.82,0,0,1,208,271.78Z"/><path class="cls-1" d="M234.89,271.78h-8.45a5.82,5.82,0,0,1,5.82,5.82v1.47h7v-3A4.32,4.32,0,0,0,234.89,271.78Z"/><path class="cls-6" d="M32.82,7.48l30.51,35.4a5.17,5.17,0,0,1-1.66,1.59,4.82,4.82,0,0,1-2.53.73H30.52a4.15,4.15,0,0,1-4.1-4.83L29.8,11.59a5.21,5.21,0,0,1,1.78-3.3A5.35,5.35,0,0,1,32.82,7.48Z"/><path class="cls-6" d="M70.7,51.44l33,38.24a5.1,5.1,0,0,1-.56.58,4.85,4.85,0,0,1-3.22,1.25H70.23a4.55,4.55,0,0,1-4.41-5.18l2.57-30.89a5.41,5.41,0,0,1,1.24-3A5.28,5.28,0,0,1,70.7,51.44Z"/><path class="cls-6" d="M111.47,98.73,147,140a4.78,4.78,0,0,1-3.29,1.35H112.94c-2.78,0-4.91-2.5-4.76-5.58l1.64-33.23A5.75,5.75,0,0,1,111.47,98.73Z"/><path class="cls-6" d="M193.71,194.16a4.59,4.59,0,0,1-2.7.89H159c-2.89,0-5.18-2.71-5.14-6l.54-35.86a6.09,6.09,0,0,1,1.06-3.39Z"/><path class="cls-6" d="M25.36,53.31,57.54,90.71a4.84,4.84,0,0,1-2.62.79H25.25A4.38,4.38,0,0,1,21,86.32l3.63-30.89A5.45,5.45,0,0,1,25.36,53.31Z"/><path class="cls-6" d="M65.37,99.82l34.73,40.39a4.84,4.84,0,0,1-3,1.11H66.26c-2.78,0-4.82-2.5-4.56-5.58l2.76-33.23A6,6,0,0,1,65.37,99.82Z"/><path class="cls-6" d="M146,193.54a4.9,4.9,0,0,1-3.49,1.52h-32c-2.89,0-5.1-2.71-4.93-6l1.76-35.86a6.37,6.37,0,0,1,1.1-3.29Z"/><path class="cls-6" d="M22,98c8.42,11.13,20,26.35,31.85,41.9a5.13,5.13,0,0,1-3.43,1.4H19.58c-2.77,0-4.73-2.5-4.36-5.58l3.9-33.23A6.14,6.14,0,0,1,22,98Z"/><path class="cls-6" d="M95.67,194.74a4.63,4.63,0,0,1-1.69.32H62c-2.88,0-5-2.71-4.72-6l3-35.86a6.72,6.72,0,0,1,1.18-3.25C74.58,167.14,87.29,183.78,95.67,194.74Z"/><path class="cls-6" d="M47.52,194.59a4.74,4.74,0,0,1-2,.47h-32c-2.88,0-4.91-2.71-4.51-6l4.21-35.86a6.56,6.56,0,0,1,.76-2.4Z"/><path class="cls-6" d="M105.64,44a4.59,4.59,0,0,1-.72.52,4.66,4.66,0,0,1-2.37.66H73.91a4.31,4.31,0,0,1-4.27-4.83L72,11.59A4.9,4.9,0,0,1,73.49,8.5Z"/><path class="cls-6" d="M147.71,90.53a4.61,4.61,0,0,1-2.85,1H115.19a4.73,4.73,0,0,1-4.58-5.18l1.51-30.89a5.26,5.26,0,0,1,1.13-3Z"/><path class="cls-6" d="M193,140.54a4.59,4.59,0,0,1-2.56.78H159.61a5.24,5.24,0,0,1-4.95-5.58l.5-33.23a5.62,5.62,0,0,1,.81-2.85Z"/><path class="cls-6" d="M241.75,194.45a4.41,4.41,0,0,1-2.23.61h-32c-2.89,0-5.27-2.71-5.34-6l-.69-35.86a6,6,0,0,1,.53-2.63Z"/><path class="cls-6" d="M117.57,7.25,150.21,42.4a4.93,4.93,0,0,1-.9,1.33,4.68,4.68,0,0,1-3.39,1.47H117.3a4.49,4.49,0,0,1-4.43-4.83l1.41-28.78a4.84,4.84,0,0,1,1.6-3.34A4.67,4.67,0,0,1,117.57,7.25Z"/><path class="cls-6" d="M158.34,51.15,193.76,89.3a4.66,4.66,0,0,1-3.92,2.21H160.16a4.93,4.93,0,0,1-4.76-5.18l.46-30.89A5,5,0,0,1,158.34,51.15Z"/><path class="cls-6" d="M202.22,98.43l38.31,41.26a4.51,4.51,0,0,1-3.46,1.63H206.28a5.45,5.45,0,0,1-5.14-5.58l-.64-33.23A5.32,5.32,0,0,1,202.22,98.43Z"/><path class="cls-6" d="M290.92,194a4.37,4.37,0,0,1-2.9,1.09H256c-2.88,0-5.36-2.71-5.54-6l-1.91-35.86a5.79,5.79,0,0,1,1-3.71Z"/><path class="cls-6" d="M157,9.71,191.7,44.51a4.38,4.38,0,0,1-2.38.7H160.69a4.67,4.67,0,0,1-4.6-4.83l.43-28.78A4.53,4.53,0,0,1,157,9.71Z"/><path class="cls-6" d="M200.18,53l37.44,37.5a4.37,4.37,0,0,1-2.81,1H205.14a5.15,5.15,0,0,1-4.95-5.18l-.59-30.89A4.87,4.87,0,0,1,200.18,53Z"/><path class="cls-6" d="M246.58,99.46,287,139.9a4.31,4.31,0,0,1-3.22,1.42H253a5.68,5.68,0,0,1-5.32-5.58l-1.78-33.23A5.4,5.4,0,0,1,246.58,99.46Z"/><path class="cls-6" d="M340.12,193.14a4.3,4.3,0,0,1-3.6,1.92h-32c-2.88,0-5.45-2.71-5.75-6l-3.14-35.86a5.66,5.66,0,0,1,.89-3.69Z"/><path class="cls-6" d="M200.81,7.72l35.6,35.47a4.43,4.43,0,0,1-1.49,1.42,4.37,4.37,0,0,1-2.21.6H204.08a4.86,4.86,0,0,1-4.76-4.83l-.56-28.78A4.48,4.48,0,0,1,200,8.4,4.21,4.21,0,0,1,200.81,7.72Z"/><path class="cls-6" d="M244.88,51.63l38.33,38.19a4.27,4.27,0,0,1-3.43,1.69H250.11A5.37,5.37,0,0,1,245,86.32l-1.65-30.89A4.7,4.7,0,0,1,244.88,51.63Z"/><path class="cls-6" d="M333.54,140a4.2,4.2,0,0,1-3.12,1.36H299.63c-2.78,0-5.24-2.5-5.51-5.58L291.2,102.5a5.06,5.06,0,0,1,1.05-3.67Z"/><path class="cls-6" d="M243.1,7.61,279.82,43a4.15,4.15,0,0,1-1.29,1.46,4.24,4.24,0,0,1-2.44.75H247.47a5.08,5.08,0,0,1-4.94-4.83L241,11.59a4.33,4.33,0,0,1,.82-2.84A4.12,4.12,0,0,1,243.1,7.61Z"/><path class="cls-6" d="M328.24,89.63a4.08,4.08,0,0,1-3.5,1.88H295.08a5.59,5.59,0,0,1-5.29-5.18l-2.7-30.89a4.51,4.51,0,0,1,1.57-3.94Z"/><path class="cls-6" d="M322.3,44.1a1.49,1.49,0,0,1-.23.21,4.06,4.06,0,0,1-2.59.89H290.86a5.3,5.3,0,0,1-5.1-4.83l-2.52-28.78a4.29,4.29,0,0,1,.66-2.73,4.08,4.08,0,0,1,.74-.85Z"/></g></g></svg>