<svg xmlns="http://www.w3.org/2000/svg" xmlns:xlink="http://www.w3.org/1999/xlink" viewBox="0 0 310.42 309.83"><defs><style>.cls-1{isolation:isolate;}.cls-2{fill:url(#radial-gradient);}.cls-3{fill:#8fc2d0;opacity:0.4;mix-blend-mode:screen;}.cls-4,.cls-7{opacity:0.2;mix-blend-mode:multiply;}.cls-5,.cls-7{fill:#53728a;}.cls-6{fill:#394a57;}.cls-8{fill:#bad463;}.cls-9{fill:#a9c257;}.cls-10{fill:#e0e988;}.cls-10,.cls-12{mix-blend-mode:soft-light;}.cls-11{fill:#ddd2a2;}.cls-12{opacity:0.3;}.cls-13{fill:#fff;}</style><radialGradient id="radial-gradient" cx="154.1" cy="125" r="153.06" gradientUnits="userSpaceOnUse"><stop offset="0" stop-color="#6595ac"/><stop offset="0.24" stop-color="#6392a9"/><stop offset="0.45" stop-color="#5e899e"/><stop offset="0.65" stop-color="#55798c"/><stop offset="0.84" stop-color="#486373"/><stop offset="1" stop-color="#394a57"/></radialGradient></defs><title>terre</title><g class="cls-1"><g id="Calque_2" data-name="Calque 2"><g id="Objects"><circle class="cls-2" cx="155.07" cy="154.05" r="153.06"/><path class="cls-3" d="M247.79,32.28c-1,5.72-1.78,11.49-3.8,17-1.23,3.36-2.85,6.71-5.55,9.06-3.65,3.18-8.68,4.08-13.39,5.18-13,3-27.24,10.69-29.06,23.93-1.34,9.7,4.9,19.21,13.11,24.55s18.1,7.32,27.75,9c8.06,1.4,16.56,2.85,22.89,8s9.25,15.51,3.82,21.63c-7,7.83-23,4.92-26.56,14.76-1.51,4.14.25,8.84,3,12.27,6.85,8.54,18.58,11.07,29.35,13l32.73,6a153.24,153.24,0,0,0-54.28-164.5Z"/><path class="cls-3" d="M25,182.27c3.94,1.35,8.13,1.94,12,3.57C45.64,189.52,51.43,198,60,202c12.18,5.62,26.79.45,37.56-7.54,3.73-2.77,7.35-6.07,8.9-10.45,2-5.75.07-12.09-2.32-17.69a114.78,114.78,0,0,0-12.32-21.86c-4.94-6.87-11-15-7.93-22.93,2.6-6.73,10.46-9.39,17.1-12.21s13.85-8.47,12.52-15.57c-.71-3.79-3.73-6.65-6.32-9.51-5.09-5.65-9.14-12.8-8.89-20.41s6-15.31,13.58-15.72c9.57-.52,16.56,9.64,26,11.3,7.7,1.35,15.7-3.75,18.8-10.93s1.75-15.79-2.38-22.43c-3.19-5.13-8.14-10.9-5.51-16.33a9.88,9.88,0,0,1,5.85-4.65c7.65-2.64,16,.62,23,4.64s13.88,9,21.9,10c7.66,1,15.2-1.68,22.82-3.15A153.11,153.11,0,0,0,2,154.05q0,5.88.44,11.65L4,167.32C10.14,173.46,16.84,179.45,25,182.27Z"/><g class="cls-4"><path class="cls-5" d="M308.13,154.05A153.06,153.06,0,0,0,158.29,1c2.35,7,6.91,13.88,11.32,19,5.94,6.91,13.09,13.51,15.09,22.39,1.35,6,.16,12.38,2,18.24,2.91,9.43,12.9,15,22.62,16.73,3.7.65,7.88,1.09,10.27,4,3.49,4.26.88,10.79,2.61,16,3.12,9.44,18.5,10.75,20.55,20.48,2.33,11.07-15.4,19.28-12.38,30.19.92,3.32,3.75,6.11,3.69,9.55-.09,5.08-6.06,7.75-8.73,12.08-4.16,6.75.53,15.31,5.1,21.79l14,19.9c5,7.06,10.15,16.11,6.2,23.79-3,5.75-10.1,8.35-13.25,14-3,5.35-1.67,12-.27,17.93l3.28,14A152.91,152.91,0,0,0,308.13,154.05Z"/></g><path class="cls-6" d="M308.13,154.05A153.07,153.07,0,0,0,166.67,1.43a8.54,8.54,0,0,0,4.91,6c3.47,1.7,7.57,2.76,9.78,5.93.82,1.17,1.31,2.55,2.17,3.7a14.08,14.08,0,0,0,4.59,3.49L206.58,31c-6.67,3-8.06,13.6-2.39,18.25,2.11,1.73,4.94,2.75,6.25,5.15,2,3.68-.65,8.75,1.64,12.26,2.45,3.75,8,2.68,12.46,1.93s10.68,1.06,10.09,5.5c-.3,2.24-2.41,3.83-3.09,6-2,6.15,8,10.3,8.11,16.76,0,2.76-1.81,5.68-.49,8.11,1.66,3.05,6.39,2.13,9.32,4a8.39,8.39,0,0,1,3.19,5.13c1.42,5.46.39,11.22-.64,16.76l-4.35,23.35c-2.11,11.31-4.21,23-1.78,34.23s10.59,22.07,21.94,24c2.05.34,4.32.46,5.85,1.87,3,2.71.83,7.82-2.32,10.31s-7.26,4-9.31,7.47c-2.86,4.83-.52,11.47-3.36,16.32-1.69,2.89-4.92,4.56-6.91,7.25-2.93,4-2.61,9.73-.18,14a18.06,18.06,0,0,0,1.8,2.58A152.75,152.75,0,0,0,308.13,154.05Z"/><path class="cls-7" d="M203.88,283.94c-.41-5.18-1.42-11.46,2.69-14.62,1.39-1.07,3.23-1.6,4.24-3,1.9-2.69-.42-6.41-3.14-8.26s-6.11-3.17-7.54-6.13-.35-6.45-.52-9.73c-.54-10-12.09-15.4-22-16.66s-21.11-1-28.4-7.91c-2.56-2.41-4.42-5.56-7.24-7.66-10.7-8-26.72,3.3-39-1.92-3-1.29-5.88-4.24-5.24-7.47.34-1.69,1.59-3.17,1.6-4.89,0-3.54-4.47-4.84-7.58-6.53-5.88-3.2-8.3-10.87-6.86-17.41s6-12,11.22-16.19c6.39-5.15,14.9-10.77,13.85-18.92-.32-2.51-1.6-4.83-1.92-7.34-1.58-12.4,18.57-17.35,20.53-29.69.67-4.24-1-8.45-1.87-12.67s-.49-9.32,3-11.78c2.13-1.49,5.08-1.73,6.82-3.67,1.36-1.52,1.61-3.7,2.14-5.67C142,53.25,157.9,46.53,159.62,33.67c1.06-7.95-3.82-15.45-9.23-21.37-3.3-3.6-6.93-6.85-9.68-10.63A153.08,153.08,0,0,0,30.2,242.6c7.48.88,15.2.81,21.9,4.14,5.33,2.65,9.43,7.2,13.24,11.77A256.07,256.07,0,0,1,89,292.17a153.52,153.52,0,0,0,112.88,7.65A40.91,40.91,0,0,0,203.88,283.94Z"/><path class="cls-6" d="M196.64,272.75c1.13-2,2.29-4.15,2.1-6.43-.38-4.72-5.84-7-10.38-8.37a227,227,0,0,1-42.18-17.7c-10.47-5.7-21.07-12.4-33-12.92-7.43-.32-14.73,1.83-21.75,4.3-2.73,1-5.59,2-8.44,1.5-8.71-1.49-9.47-14.24-16.29-19.86-1.36-1.12-3-2-3.92-3.49-2-3.32-.23-9-3.8-10.54-3.38-1.46-6.25,3.14-9.81,4-3,.77-6.19-1.46-7.5-4.3s-1.19-6.11-.91-9.23c.66-7.29,4.64-16.54,11.89-15.51,5.26.75,7.87,6.53,11.21,10.65s11.33,6,12.91.95c.58-1.85-.11-3.83-.68-5.68-6-19.64,1.21-41.83,15.27-56.8,1.61-1.71,3.58-3.46,5.92-3.4-1.31-4.39,4.39-7.29,8.79-8.56s9.74-5.38,7.28-9.25l-5.68-.6.92-5.24-5.13-3.51a33.63,33.63,0,0,1,16.83-9.38c.12-6.53-4.47-12.42-10.11-15.7S97.94,63.26,91.5,62.18c-3.44-.58-7-1.14-10.37-.1s-6.28,4.21-5.83,7.68c-5.82-3.74-5.82-13.17-1-18.09S87.2,46,93.71,48.36c2.64.94,5.29,2.35,8.08,2,3.79-.42,6.59-4,7.34-7.77S109,35,108.19,31.32c4.92-1.41,9.75,2.76,12.23,7.24s3.91,9.72,7.66,13.23a6.36,6.36,0,0,0,3.68,1.9c3.31.27,5.62-3.45,5.84-6.77s-.81-6.66-.28-9.94c1-6,6.92-10.63,6.81-16.72C144,11.39,133.67,8.55,127.29,3.51A153.21,153.21,0,0,0,10,203a20.21,20.21,0,0,1,4.92,2.69L81.5,251c2.7,1.84,5.49,3.77,7.15,6.58,2.44,4.14,2,9.39,3.89,13.8,1.46,3.39,4.19,6,6.87,8.56q13.2,12.47,26.83,24.48a153.9,153.9,0,0,0,50.46,1.19c4.31-5.21,7.74-11.21,11.08-17.13Z"/><path class="cls-8" d="M126.27.31s3.63-1,4.7.68-1.61,2.13-3.48,2.48-4.27.27-1.22,2.43,8.25,2.79,11.17,7.87,6.09,5.08,2.67,10.28-7.58,11.94-6.9,15.87,2.59,13.59-5.41,8-9.78-11.43-11-17.4-4.83-10.16-6.6-13.33-2.92-6-4.57-5.33-6,3.17-6.6,4.32,0,1.9,2.16,4.44,4.19,1.65,1.9,5.59-1.9,2.41.38,4.83S108.75,35,106,38.79s-4.7,5.84-3.56,8.89S104,54,98.74,51.23s-10.69-7.49-11.19-9.52,1-1.27,2.92-2.92,2.29-5,2.16-7.49-2.29-3-3.56-3.3-1.78.76-2.41,4.57-2.54,5.21-5.71,5.71c0,0,2.67,6.48,0,8.13s-5.46,1.52-9,1a73,73,0,0,0-6.09,6c-2.16,2.54-3.56,4.06-4.32,4.83s-2.16,1.4-1.65,5.33.63,5.21,4.06,6.35a9.57,9.57,0,0,1,6.6,7.36,41.55,41.55,0,0,1,1.14,9.4c-.13,1.14,2.29,2,2.54-1.52s1-8,3.17-10.29S79.55,67.61,79,63.42a13.39,13.39,0,0,1,1.65-8.76c1-1.65,4.06-5.33,7-3.17s6.6,3.94,7.24,6.22,1,4.44,1,4.44,2-4.57,4.75-4.32,3.88,2,4.52,4.32,2.29,4.32,5.08,7.24,3.81,6.35,5.46,8.51a24.21,24.21,0,0,1,3.43,6c.13.76-2.79.25-6.22,1.27s-3.94,3.3-8,4.19-8.51,1-10.92,4.32-4.57,3.94-2.67,5.59,2.29-.25,3.94-1.78,5.08-2.54,7.11-2.79,2.41-1.27.76,2-1.9,4.7-.25,5.59,1.78,3.3,3.94,1.52,3.94-3.56,4.32-2.16.89,3.17-1.4,4.7-6.35,4.19-8.25,6.6-1.9,0-3.17-.76-3.94,1.9-6.35,3.43-3.81,1.52-3.43,4.06,2.54,7-.13,7.11-5.33.25-6.6,1,.13,1.52-.76,4.32-2.29,5.46-4.44,6.73c0,0,1.27,8.63-.76,11.55S71.8,159,70.15,160.94s-5.59,5.33-4.06,7.75,5.21,7.49,5.71,9.52,1.9,6.35-.63,6.48S65.83,179.47,63,174.4s-7.49-8.76-10.41-7.49-3,3.43-5.59,3.68-5.84-.51-7.49.13-2.41,2.41-2.92,4.82-6.09,21.21-1.14,26,13.08,3.94,13.08,3.94,3.68-9.4,7.24-6.86,1.14,5.84,1.27,9.4,2.54,9,2.54,9,7-.13,8.89.76,2.29,1.14,2.67,5.59-.13,5.59,3.43,8,4.06,4.32,6.09,4.32,5.68-.13,6.84,1.4a4.16,4.16,0,0,0,3.07,1.52s3-.38,3.68-1.27-2.79-2.16-1-4.32,2.29-2.67,4.44-5.33,2.29-4.7,3.3-4.19,2.16,1.4.38,3.81S101,232.42,103,232s2.79-3.17,1.65-4.32,1.27-2.29,3.17-.25,2.54,5.08,7.24,3,8.76-4.19,10.79-3.43,5.59,1.65,6,6.09,6.22,7.62,12.06,8,8.57-1.52,11.14,0,5.36,2.67,5.62,6.73,1.52,5.84,6.6,6,7.62,1,11.68,1.4S192,254,196,259.6s-3.17,14.22-7.36,17.4c0,0-.89,11.94-5.71,16s-6.86,6-9.27,8.89-2.54,6.86-12.82,7.36-19.17,2.54-25.27-5.71-8.38-10.92-15.49-13.08S99.36,278.77,95.16,267s1.14-16.63-3.56-20.57-6.48-4.06-8-3.3-9-3.68-13.59-7.75S52,221.12,48.69,220a76.31,76.31,0,0,0-7.36-2.41c-1.4-.25-10.16-3.43-13-7.11a27.13,27.13,0,0,0-9-7.36c-2.79-1.52-5.59-6-6.48-8.38s-3.81-5.59-5-5.84-4.06-.63-5.21-4.06A55.89,55.89,0,0,1,.19,166.65c.13-8.38.62-14.6,0-18.16s.39-23.24,3.05-29.59,8.51-23,10.41-29.2,6.73-16,10-19.3S37.14,53.77,40.82,48.82,52.37,34.6,57.71,32.18,72.56,22.79,77.13,20,92.37,12,96.69,9.58,122.46.35,126.27.31Z"/><path class="cls-9" d="M175.81,285c2.35-3.43,5.37-7.11,4.62-11.2-.7-3.8-4.44-6.22-8.05-7.59-9.41-3.58-21.08-3.79-27.24-11.75-2-2.53-3.43-5.89-6.5-6.81-1.63-.48-3.38-.14-5.07-.28-7.94-.66-12.47-11.34-20.44-11.39-6.6,0-11.59,7.45-18.18,7a16,16,0,0,1-5.79-1.93c-7.78-3.75-15.69-7.59-21.94-13.55-6.09-5.81-10.73-13.7-18.56-16.81-3.64-1.45-7.72-1.73-11.13-3.66-7-4-8.74-13.37-7.89-21.37A54,54,0,0,1,36.26,165a10.8,10.8,0,0,1,2.61-3.36c2.37-1.84,5.69-1.64,8.68-1.36l15.84,1.51,6.87-27.16a12.86,12.86,0,0,1,2.19-5.23c1.41-1.69,3.61-2.56,5.07-4.2,2.85-3.19,2.22-8.31,4.67-11.81,2-2.9,5.72-4.1,8.31-6.5,1.89-1.75,2.77-5,1.81-7.1a2.69,2.69,0,0,1-1-.59,1.86,1.86,0,0,1-.71-1l-.2-.09c-1.36-.46-2.93,0-4.23-.61C84.29,96.62,84,93.83,85,91.95s2.8-3.16,4.38-4.58a23.5,23.5,0,0,0,6.83-11,8.32,8.32,0,0,0,0-5.72c-2.22-4.78-10-2.86-12.76,1.65s-2.62,10.17-4.59,15.06-8.15,9-12.32,5.81c-4.56-3.53-1.38-11-3.38-16.42S53.52,67.91,54,62c.49-5.56,7.67-7.66,10.69-12.36,1.49-2.32,2.07-5.42,4.42-6.86s5.48-.55,8-1.64c3.48-1.52,4.35-5.92,5.53-9.53s4.61-7.55,8.08-6C94,27,93.78,31.7,92.63,35S90,42.35,92.1,45.16c4.5,2.16,9.48-3.13,9.67-8.12S99.4,27.4,98.39,22.51s.41-11.19,5.21-12.56c5.7-1.63,10.25,4.69,12.8,10l4,8.27A9.86,9.86,0,0,0,122.94,32c3.33,2.56,8.61-.49,9.54-4.59s-1.14-8.27-3.64-11.65c-3.24-4.38-7.71-8.7-7.7-14.46-7.79,2-21.14,6.42-24.45,8.27C92.37,12,81.71,17.2,77.13,20c-3.41,2.08-9.56,6.49-14.69,9.6-2.9,4-5.54,8.17-8.58,12C47.78,49.4,40.08,55.9,34.8,64.23,28.44,74.28,26,86.43,19.42,96.37c-3.7,5.63-8.68,10.5-11.22,16.74-6.1,15,3.69,31.71,2.82,47.88-.41,7.62-3.21,15.26-1.6,22.73,1.39,6.47,5.92,11.8,10.75,16.33,7.56,7.08,16.19,12.89,24.81,18.63L48.69,220c3.3,1.14,16.76,11.3,21.33,15.36l.13.11,10.36,6.91c1.46.67,2.6,1,3.09.73,1.52-.76,3.3-.63,8,3.3a5.81,5.81,0,0,1,2.08,5.15A19.38,19.38,0,0,1,96,253.87c5.85,7.28,5.06,18.93,12.35,24.76,5.38,4.3,13.17,3.72,19.44,6.59,6.92,3.17,11.19,10.1,15.05,16.66l4.63,7.85c4.06.3,8.56-.25,13.37-.49a19.31,19.31,0,0,0,7.42-1.53c.23-1.78.41-3.58.69-5.34A42.41,42.41,0,0,1,175.81,285Z"/><path class="cls-8" d="M170.23,1s-.54,5.2,3.22,6.81,6.79.36,10.55,3.4,3,4.47,6.61,4.11,5-.54,6.53,3.4,2.77,8.22,8.85,7.69,6.08,1.79,8,3.93,2.68,5.72,4.47,3.4,2.5-4.11,3.58-.54,1.79,3.93,4.65,5.9,5.72,4.83,5.54,7.87-7.69-2.32-12-5.36S209.56,33.9,208.84,35s-4.47,2.32-.36,5.9,5,4.11,6.26,8.58,2.5,11.8,6.26,11.44,6.26-4.29,7-1.43,1.25,3.42,3.4,1.44,4.29-6.45,6.08-5.55,2,1.43,1.07,4.47-1.43,4.47-2,5.9-.18,1.07,3.93,1.43,3.4,1.61,3.93,4.47,1.07,3.93,2.86,5.18.54,2.32-2.15,2.86-5.18,2-2.32,5.72,4.65,7.87,7.15,12.33,1.25,7,4.65,6.79,6.61,2.86,7.87-3.75,2.15-9.83,0-14.3-2.06-11.26,1.29-10.37,5.32,2.68,8.72,6.08,4.47,3,7.51.89a24.37,24.37,0,0,0,4.47-3.75c.89-.89,2.32.36,5.54,7s7.51,17,7.51,17S290,93.43,287.68,95s-2.68,3.58-.54,5,.89,6.26-2.86,1.79-5-4.83-5.9-7.51-4.47-2.15-6.61.36.18,3.58-3.22,6.79-7.15,5.36-7.15,8.94.71,19.49-.72,19.49-3,1.61-3.22,7-.54,12-1.07,15.67-.89,7.92.18,10.78a36.37,36.37,0,0,0,2.32,5s.18,16.63.54,22.52,4.11,15.19,8.76,18.59,3.4,6.08,7.87,2.15,8.22-10.19,9.47-11.08,1.07,2.86-.54,8.4-5,21.63-8.4,26.64-3.4,6.61-6.79,9.3-5.18,4.47-6.08,7.51-2.68,6.26-2.86,7.15-.55,5.69-.55,5.69,7.34-3.19,18.25-17.85,21.63-33.61,24.31-44.15,8-36.47,7.51-48.27-2-34.5-5.72-43.26S293,80.38,283.92,68.4s-24.31-30.75-41.65-41.83S214.2,10.12,200.08,6,174-.45,170.23,1Z"/><path class="cls-9" d="M310.38,154.92c-.45-9.87-1.53-27.36-4.07-37.94a16.08,16.08,0,0,1-5.71-1.24c-4.09-1.69-8-4.37-12.42-4.39-6.51,0-11.72,5.91-13.52,12.16s-1.14,12.92-1.36,19.42a87.13,87.13,0,0,1-4.67,24.5c-2.61,7.83-5.69,17.57.14,23.42,4.15,4.17,10.79,4,16.67,4.33s12.85,2.51,14.23,8.24c.87,3.62-.92,7.28-2.52,10.64a147.84,147.84,0,0,0-5.86,14.08c5.59-9.5,10-18.69,11.6-24.94C305.55,192.64,310.91,166.71,310.38,154.92Z"/><path class="cls-9" d="M201.59,14.32c8.47,3.71,16.75,8.15,23.53,14.52,1.64,1.54,3.23,3.21,5.29,4.1,3.38,1.46,7.56.59,10.66,2.58s3.94,6.59,2.08,9.77a9.14,9.14,0,0,1-9.53,4c-.15,3,3.27,4.94,6.25,5.59s6.44,1,8.14,3.57c1.11,1.65,1.13,3.78,1.11,5.77l-.08,7.37c0,4.57,2.28,11,6.61,9.55,2.22-5.47,6.17-11.21,12.06-11.7a18.69,18.69,0,0,1,7.13,1.29L288.27,75a66.09,66.09,0,0,0-4.35-6.63c-9.12-12-24.31-30.75-41.65-41.83S214.2,10.12,200.08,6c-5-1.47-9.79-2.7-14-3.63C188.63,9.34,194.67,11.29,201.59,14.32Z"/><path class="cls-10" d="M8.64,167.42c5.44,1.63,10.94-2,15.48-5.41l14-10.58c2.52-1.9,5.21-3.87,8.35-4.16,2.15-.2,4.35.41,6.45-.07s3.73-1.91,5.31-3.3c7.11-6.26,14.53-13,17.34-22,1-3.22,1.37-6.62,2.38-9.83,3.74-11.87,15.87-20.27,17.51-32.6-2.6-2.06-6.57-.66-8.93,1.66s-3.92,5.41-6.47,7.53c-4.25,3.53-10.3,3.64-15.83,3.56a7.24,7.24,0,0,1-4.08-.87c-3.07-2.12-1.25-6.84-1.48-10.56-.33-5.5-5.84-10.23-4.56-15.6.85-3.55,4.39-5.76,6.11-9,2.33-4.36,1.07-10.06,3.67-14.27,3.58-5.79,12.47-5.86,16.79-11.12,1.67-2,2.51-4.7,4.38-6.56s5.61-2.31,6.76.06c.71,1.45.6,3.85,2.21,3.94,1,.05,1.66-1,1.93-2C97,22.6,95.79,18.43,97.47,15c2.5-5.1,10.15-6,13.07-10.59-6,1.92-11.82,4-13.85,5.16C92.37,12,81.71,17.2,77.13,20S63,29.77,57.71,32.18c-2.9,1.31-6.55,4.66-9.87,8.23-3.63,8.92-7.51,17.81-13.44,25.36-2.49,3.17-5.33,6.09-7.49,9.49-6.35,10-6.14,22.87-11.24,33.56C11.74,117,4.73,124,.74,131.91,0,139-.18,146.44.18,148.49A53.62,53.62,0,0,1,.41,158C2,162.28,4.43,166.16,8.64,167.42Z"/><path class="cls-10" d="M107.46,236.25c7.36-1.83,15.09,1.23,21.41,5.41s11.86,9.54,18.52,13.17a65.89,65.89,0,0,0,17.24,6c3.36.75,6.81,1.42,9.79,3.12s5.49,4.71,5.56,8.15c.08,3.67-2.53,6.85-5.32,9.23s-6,4.46-7.89,7.61c-2.76,4.6-2.72,11.33-7.44,13.87-2.5,1.35-5.61.95-8.27,0-7.46-2.76-12.68-9.46-19.32-13.84-6.06-4-13.28-6.06-19.21-10.26A32.28,32.28,0,0,1,99.74,257.8C98.51,250.53,98.71,238.43,107.46,236.25Z"/><path class="cls-10" d="M282.9,108.3a17.13,17.13,0,0,0-4.54.09c-4.89,1-8,6-8.85,10.94s-.17,10-.63,14.92c-.41,4.44-1.73,8.73-2.59,13.11a63.13,63.13,0,0,0-1.16,14.07c.08,2.66.56,5.71,2.82,7.11s5.32.41,7.32-1.35,3.3-4.16,5-6.18c4.53-5.31,11.66-7.72,16.65-12.6s7.48-12,8.14-19.05a25.82,25.82,0,0,0-1.19-11.68C300.22,108.1,291.56,108.89,282.9,108.3Z"/><path class="cls-11" d="M302.54,116.17c-1.23-.43-2.46.58-3.72.93a5.92,5.92,0,0,1-4.47-.92c-1.35-.79-2.55-1.83-4-2.52a2.26,2.26,0,0,0-1.39-.31c-.87.17-1.31,1.14-1.49,2-1,4.74,1.21,10-1,14.37-.52,1-1.27,2-1.87,3a11.22,11.22,0,0,0-1.38,3.7,3.26,3.26,0,0,0,0,1.38c.23.9,1.05,1.49,1.66,2.19,1.51,1.75,1.69,4.27,1.64,6.59a52.85,52.85,0,0,1-.51,6.23,16.72,16.72,0,0,0-.26,5.47,7.06,7.06,0,0,0,5.54,5.53,6.51,6.51,0,0,0,6.87-3.57c.5-1.11.68-2.4,1.46-3.34s2.16-1.4,3-2.37a6.58,6.58,0,0,0,1.14-3.81L305,136.92a81.88,81.88,0,0,0,.45-12.28,31.51,31.51,0,0,0-.76-4C304.39,119.12,304.32,116.79,302.54,116.17Z"/><path class="cls-10" d="M212.36,20.57c1.71,2.22,3.05,4.64,5.19,6.54,3.39,3,7.83,4.47,11.87,6.53s8,5.19,8.93,9.63c.56,2.75-.1,5.8,1.29,8.24s4.3,3.39,6.89,4.42A43.84,43.84,0,0,1,265,70c1.29,1.69,2.78,3.66,4.91,3.69s3.63-1.85,4-3.82a10.61,10.61,0,0,0-1.1-5.81c-4-9.49-11.41-17.08-18.64-24.42-5.73-5.82-11.55-11.71-18.58-15.88-3.89-2.31-8.14-4.08-11.67-6.91a21.42,21.42,0,0,0-4.12-3c-2.44-1.14-13-5.92-12.53.79.14,2.09,3.37,3.83,4.61,5.34Z"/><g class="cls-12"><path class="cls-13" d="M285,69.85c-.35-.5-.7-1-1.06-1.45-1.14-1.5-2.37-3.1-3.7-4.78-4-5-8.72-10.79-14-16.47-1.33-1.42-2.71-2.83-4.11-4.23-3.27-3.27-6.71-6.46-10.3-9.4-1.46-1.2-2.95-2.34-4.45-3.44-1.66-1.23-3.34-2.41-5.05-3.51a237,237,0,0,0-21-12.26l-2.05-1q-1.69-.81-3.35-1.55l-1.48-.65q-1.72-.74-3.45-1.42c-1-.41-2.09-.81-3.15-1.19-2.48-.89-5-1.7-7.65-2.47h0l-3.34-.95L196,4.85,192.84,4l-.1,0q-1.73-.45-3.38-.85l-.09,0q-1.64-.4-3.19-.74h0C178.47.71,172.64.06,170.23,1c0,0,0,.29,0,.74l-.84-.07-1.56-.14-1.14-.1h0l-.61,0h-.15l-.78,0-1.56-.1-1.38-.07h-.09l-1.42-.05-1.36-.05-1,0h0c-1.06,0-2.13,0-3.19,0h0c-4.84,0-9.63.24-14.36.68h0q-1.78.17-3.56.37H137q-1.74.2-3.46.45l-.18,0q-1.71.24-3.41.52l-.18,0-2.5.43h0l-.88.17-.14,0-1,.19a15.41,15.41,0,0,1,2.26-.44C129.36,3.12,132,2.71,131,1s-4.7-.68-4.7-.68a28.66,28.66,0,0,0-5.14,1h0c-1.93.49-4.2,1.14-6.58,1.85l-.07,0-.85.26-.1,0L111,4.27l-.22.07-.26.08h0l-.44.14-.28.09-.43.14-.3.1-.25.08-.61.2-.49.16-.64.21-.45.15-.34.12-.32.11-.34.12-.31.11-.43.15-.36.13-.17.06-.44.15-.18.07-.35.13-.06,0L103,7l-.24.09-.35.13-.24.09-.29.11-.09,0-.25.09-.2.08-.31.12-.32.12-.18.07h0l-.28.11-.32.12-.24.09-.17.07-.38.16L99,8.51l-.11,0-.12.05-.43.18-.07,0-.18.08L97.77,9l-.1,0-.12.06-.31.15-.1,0-.05,0-.39.21C92.37,12,81.71,17.2,77.13,20l-.83.52-.27.17-.69.44-.26.17L73,22.7l-.16.11L69.54,25l-.11.07-.76.51-.45.3-.72.48-.56.37-1,.67-.65.42-.58.37-.63.4-.56.35a53.68,53.68,0,0,1-5.79,3.23c-.35.16-.71.35-1.08.56l-.35.22c-.26.16-.52.32-.79.5l-.42.3-.77.57-.42.33-.81.67-.39.34-.88.78-.33.31-1,.92-.25.24L49.18,39l-.14.15-1.2,1.26h0a105.41,105.41,0,0,0-7,8.4C37.14,53.77,27,67.1,23.68,70.4s-8.13,13.08-10,19.3S5.9,112.56,3.23,118.91C1.53,123,.5,132.47.14,139.73v0q0,.58-.05,1.13V141q0,.56,0,1.09v0c0,1.1,0,2.11,0,3,0,.07,0,.14,0,.21s0,.41,0,.6,0,.17,0,.25,0,.33,0,.49,0,.17,0,.25,0,.28,0,.41,0,.15,0,.22,0,.25,0,.36l0,.16c0,.16,0,.3.06.42s.08.52.12.8c0,.09,0,.18,0,.27s0,.41.06.63l0,.31q0,.34,0,.7c0,.09,0,.19,0,.28,0,.33,0,.66,0,1v0c0,.08,0,.17,0,.25,17.63,16.32,37.61,29.63,60.37,37,44.3,14.42,93.61,4.33,135.14-16.77,39.41-20,73.88-50.78,97.53-87.93A105.33,105.33,0,0,0,285.1,70Z"/></g></g></g></g></svg>